<?xml version="1.0" standalone="no"?>
<!DOCTYPE svg PUBLIC "-//W3C//DTD SVG 20010904//EN"
 "http://www.w3.org/TR/2001/REC-SVG-20010904/DTD/svg10.dtd">
<svg version="1.0" xmlns="http://www.w3.org/2000/svg"
 width="292.000000pt" height="292.000000pt" viewBox="0 0 292.000000 292.000000"
 preserveAspectRatio="xMidYMid meet">
<metadata>
Created by potrace 1.11, written by Peter Selinger 2001-2013
</metadata>
<g transform="translate(0.000000,292.000000) scale(0.100000,-0.100000)"
fill="#000000" stroke="none">
<path d="M330 1905 c-6 -8 -70 -193 -141 -412 -129 -398 -129 -398 -111 -423
18 -24 25 -25 127 -28 126 -3 144 4 174 73 15 33 25 45 42 45 19 0 21 -4 15
-35 -6 -29 -3 -39 18 -60 24 -24 31 -25 132 -25 103 0 107 1 132 28 l27 28 23
-28 c23 -27 26 -28 127 -28 57 0 111 3 120 6 29 11 43 57 55 179 7 66 17 128
22 138 10 20 54 23 60 5 3 -7 0 -73 -5 -147 l-10 -134 27 -24 c24 -21 37 -23
126 -23 54 0 106 3 115 6 42 17 45 43 45 457 0 292 -3 396 -12 405 -18 18
-212 16 -227 -2 -6 -8 -16 -62 -21 -122 -5 -59 -14 -112 -19 -117 -11 -11 -56
-5 -56 8 1 6 5 59 9 119 7 88 6 110 -5 117 -8 5 -60 9 -115 9 -105 0 -117 -4
-127 -45 -5 -20 -5 -20 -6 0 -2 39 -20 45 -127 45 -108 0 -117 -3 -129 -53 -6
-20 -13 -27 -32 -27 -22 0 -25 3 -20 27 9 50 3 53 -113 53 -82 0 -110 -3 -120
-15z m207 -29 c-3 -7 -11 -39 -18 -70 -12 -49 -17 -56 -39 -57 -24 -2 -24 -2
3 -6 31 -5 31 -7 16 -52 -10 -27 -15 -32 -35 -27 -14 4 -24 2 -24 -4 0 -5 9
-10 20 -10 14 0 20 -7 21 -22 1 -28 37 66 38 100 1 16 7 22 24 22 20 0 23 4
19 30 -4 28 -2 30 31 30 32 0 36 3 44 38 l9 37 97 3 c54 1 97 -1 97 -6 0 -39
-14 -72 -31 -72 -12 0 -23 -10 -29 -25 -8 -21 -16 -25 -49 -25 l-40 0 20 38
21 37 -27 -30 c-50 -57 -49 -61 8 -58 52 3 77 16 77 39 0 8 7 14 15 14 10 0
15 -9 14 -27 -1 -32 -26 -135 -28 -115 0 6 -13 12 -28 11 -25 0 -26 -1 -8 -10
17 -7 15 -8 -10 -6 -26 2 -30 -2 -35 -28 -4 -26 -10 -30 -43 -33 -20 -2 -37
-9 -37 -15 0 -7 -3 -29 -6 -49 -7 -37 -6 -38 26 -38 31 0 32 -1 26 -35 -6 -31
-4 -35 14 -35 11 0 20 -6 20 -12 0 -10 3 -9 9 1 6 8 14 10 23 5 13 -8 11 -27
-9 -139 -13 -71 -28 -131 -34 -133 -5 -2 -9 -8 -9 -13 0 -6 5 -7 12 -3 7 4 8
3 4 -4 -5 -8 -47 -12 -126 -12 l-118 0 14 53 c18 70 19 69 -18 65 -36 -3 -37
0 -24 60 7 30 6 32 -18 32 -21 0 -27 -7 -36 -42 -17 -68 -19 -71 -40 -65 -11
3 -23 1 -26 -4 -3 -5 7 -9 21 -9 22 0 26 -4 20 -17 -3 -10 -9 -30 -12 -45 l-5
-28 -119 0 c-66 0 -119 3 -119 6 0 3 28 93 62 199 61 191 62 194 91 197 19 2
35 12 45 28 l16 25 -23 -22 c-23 -25 -66 -32 -59 -10 2 6 29 90 58 185 l54
172 99 0 c80 0 98 -3 94 -14z m559 -51 c-3 -36 -9 -94 -12 -130 l-7 -65 66 0
65 0 8 123 c4 67 7 125 6 130 -1 4 43 7 98 7 l100 0 -1 -57 c0 -45 -2 -53 -9
-35 -7 17 -17 22 -42 20 l-33 -1 33 -4 c21 -3 32 -9 29 -17 -3 -6 1 -20 9 -31
15 -20 19 -193 8 -292 -6 -42 -11 -53 -28 -56 -18 -4 -17 -4 5 -6 23 -1 25 -4
21 -32 -4 -26 -8 -30 -26 -25 -11 4 -34 9 -51 12 l-30 6 23 -17 c12 -9 36 -17
52 -17 l30 -1 0 -114 0 -113 -121 0 -122 0 7 43 c4 23 12 44 18 46 7 2 6 6 -2
11 -9 5 -10 35 -3 119 l8 111 -52 0 c-29 0 -53 5 -53 10 0 6 -5 10 -12 10 -6
0 -9 -3 -5 -6 3 -4 0 -12 -7 -19 -7 -7 -17 -69 -25 -151 -7 -77 -15 -147 -17
-156 -5 -15 -18 -18 -90 -18 -46 0 -84 4 -84 8 0 13 35 43 43 37 4 -3 3 0 -3
7 -11 14 -50 -16 -50 -39 0 -8 -11 -13 -28 -13 l-29 0 21 122 c21 122 21 123
51 129 l30 7 -27 1 c-35 1 -35 -8 2 221 16 102 30 191 30 198 0 6 11 12 25 12
18 0 25 -5 25 -19 0 -11 5 -23 10 -26 12 -8 13 -3 0 29 -6 16 -17 26 -30 26
-15 0 -20 7 -20 24 0 53 5 56 107 56 l96 0 -7 -65z m-282 -327 c-10 -62 -20
-103 -22 -91 -4 27 -19 40 -52 45 -36 5 -46 61 -17 101 19 26 96 70 106 61 2
-2 -5 -54 -15 -116z"/>
<path d="M330 1800 c-7 -14 -7 -20 0 -20 5 0 10 6 10 14 0 9 13 16 33 19 l32
4 -32 1 c-23 2 -35 -4 -43 -18z"/>
<path d="M570 1795 c0 -5 5 -17 10 -25 5 -8 10 -10 10 -5 0 6 -5 17 -10 25 -5
8 -10 11 -10 5z"/>
<path d="M403 1763 c-47 -6 -41 -18 9 -19 23 0 36 2 30 4 -7 2 -10 8 -6 13 3
5 4 8 2 7 -2 0 -18 -3 -35 -5z"/>
<path d="M656 1722 c-3 -5 1 -9 9 -9 8 0 15 4 15 9 0 4 -4 8 -9 8 -6 0 -12 -4
-15 -8z"/>
<path d="M386 1705 c-3 -8 -1 -15 4 -15 6 0 10 7 10 15 0 8 -2 15 -4 15 -2 0
-6 -7 -10 -15z"/>
<path d="M430 1540 c0 -11 4 -20 8 -20 4 0 8 9 8 20 0 11 -4 20 -8 20 -4 0 -8
-9 -8 -20z"/>
<path d="M500 1536 c0 -8 -10 -17 -22 -19 -20 -4 -19 -4 5 -6 17 -1 27 4 27
13 0 11 15 16 53 19 l52 3 -57 2 c-45 2 -58 -1 -58 -12z"/>
<path d="M347 1523 c12 -2 24 -12 26 -21 3 -12 5 -10 6 6 1 18 -4 22 -26 21
-23 -1 -24 -2 -6 -6z"/>
<path d="M618 1443 c7 -3 16 -2 19 1 4 3 -2 6 -13 5 -11 0 -14 -3 -6 -6z"/>
<path d="M293 1423 c9 -2 17 -11 17 -19 0 -8 5 -12 10 -9 21 13 10 35 -17 34
-17 -1 -21 -3 -10 -6z"/>
<path d="M221 1364 c0 -11 3 -14 6 -6 3 7 2 16 -1 19 -3 4 -6 -2 -5 -13z"/>
<path d="M428 1373 c23 -3 32 -9 28 -18 -2 -7 2 -16 11 -19 11 -5 14 -2 9 10
-3 8 -6 20 -6 25 0 5 -17 8 -37 7 l-38 -1 33 -4z"/>
<path d="M671 1364 c0 -11 3 -14 6 -6 3 7 2 16 -1 19 -3 4 -6 -2 -5 -13z"/>
<path d="M315 1360 c3 -5 8 -10 11 -10 2 0 4 5 4 10 0 6 -5 10 -11 10 -5 0 -7
-4 -4 -10z"/>
<path d="M550 1249 c0 -5 5 -7 10 -4 6 3 10 8 10 11 0 2 -4 4 -10 4 -5 0 -10
-5 -10 -11z"/>
<path d="M570 1184 c0 -14 3 -15 18 -3 9 7 19 15 21 16 2 2 -5 3 -17 3 -14 0
-22 -6 -22 -16z"/>
<path d="M1260 1841 c0 -5 9 -7 20 -4 11 3 20 7 20 9 0 2 -9 4 -20 4 -11 0
-20 -4 -20 -9z"/>
<path d="M1021 1814 c0 -11 3 -14 6 -6 3 7 2 16 -1 19 -3 4 -6 -2 -5 -13z"/>
<path d="M1009 1758 c4 -28 6 -29 9 -9 2 13 0 27 -5 32 -6 6 -7 -3 -4 -23z"/>
<path d="M1290 1759 c0 -4 -15 -10 -32 -12 -18 -2 -5 -4 29 -3 66 1 84 11 33
18 -16 3 -30 1 -30 -3z"/>
<path d="M1373 1743 c9 -2 23 -2 30 0 6 3 -1 5 -18 5 -16 0 -22 -2 -12 -5z"/>
<path d="M986 1678 c-5 -30 -14 -48 -25 -51 -12 -4 -11 -5 4 -6 11 0 28 8 38
19 9 11 13 20 8 20 -6 0 -11 15 -13 33 -4 30 -4 29 -12 -15z"/>
<path d="M1295 1692 c-56 -24 -81 -39 -74 -47 4 -3 14 1 22 10 9 8 21 15 28
15 26 0 88 23 83 31 -7 12 -12 11 -59 -9z"/>
<path d="M1288 1553 c7 -3 16 -2 19 1 4 3 -2 6 -13 5 -11 0 -14 -3 -6 -6z"/>
<path d="M1088 1543 c37 -3 52 -8 52 -19 0 -8 9 -14 23 -13 16 1 18 2 5 6 -10
2 -18 11 -18 19 0 11 -14 14 -57 12 l-58 -2 53 -3z"/>
<path d="M907 1506 c-4 -11 -3 -24 3 -30 14 -14 18 -5 10 24 -5 23 -7 23 -13
6z"/>
<path d="M956 1513 c27 -4 33 -9 39 -39 3 -20 2 -41 -3 -47 -9 -12 -25 -63
-17 -55 2 2 15 19 28 38 22 34 22 37 8 72 -14 34 -19 38 -51 36 l-35 -1 31 -4z"/>
<path d="M857 1440 c-3 -11 -3 -20 -1 -20 2 0 8 9 14 20 6 11 7 20 2 20 -6 0
-12 -9 -15 -20z"/>
<path d="M1250 1360 c0 -5 10 -10 23 -10 18 0 19 2 7 10 -19 13 -30 13 -30 0z"/>
<path d="M856 1265 c-3 -8 -1 -15 4 -15 6 0 10 7 10 15 0 8 -2 15 -4 15 -2 0
-6 -7 -10 -15z"/>
<path d="M840 1184 c0 -8 5 -12 10 -9 6 3 10 10 10 16 0 5 -4 9 -10 9 -5 0
-10 -7 -10 -16z"/>
<path d="M937 1160 c-3 -11 -3 -20 -1 -20 2 0 8 9 14 20 6 11 7 20 2 20 -6 0
-12 -9 -15 -20z"/>
<path d="M1300 1165 c0 -19 17 -28 35 -17 13 7 12 10 -10 20 -20 9 -25 9 -25
-3z"/>
<path d="M1479 1903 c-19 -22 -26 -771 -8 -815 16 -40 43 -48 158 -48 89 0 99
2 119 23 18 19 22 35 22 92 0 64 1 67 18 53 9 -9 31 -20 47 -25 20 -7 33 -19
39 -39 31 -101 35 -104 175 -104 91 0 99 2 121 25 l23 25 -66 401 c-36 220
-71 407 -78 415 -8 10 -37 14 -109 14 -54 0 -105 -3 -114 -6 -12 -5 -16 -20
-16 -61 0 -43 -3 -53 -12 -45 -7 6 -26 12 -43 14 -25 3 -31 8 -35 38 -10 59
-12 60 -124 60 -84 0 -106 -3 -117 -17z m444 -10 c-7 -2 -13 -9 -13 -14 0 -6
8 -6 19 1 31 16 98 13 105 -6 11 -28 6 -54 -9 -54 -8 0 -15 -2 -15 -4 0 -2 -3
-11 -6 -20 -3 -9 -1 -16 5 -16 6 0 11 7 11 15 0 8 6 15 13 15 8 0 19 -44 34
-137 11 -76 19 -141 16 -145 -2 -5 -22 -8 -45 -8 -35 0 -40 2 -35 20 8 30 -10
24 -21 -8 l-9 -27 58 3 c69 3 58 29 97 -220 l29 -178 -119 0 c-65 0 -118 3
-118 8 0 4 -3 17 -6 30 -5 17 -2 22 12 23 17 1 17 2 2 6 -10 2 -18 13 -18 23
0 40 -11 50 -55 50 -40 0 -43 2 -49 31 -9 44 -8 59 4 59 6 0 10 -13 10 -30 0
-25 4 -30 25 -30 23 0 25 4 25 45 0 30 4 45 13 45 20 0 37 -22 37 -47 0 -13 5
-23 10 -23 6 0 10 22 10 50 0 44 -3 50 -24 56 -51 12 -61 3 -61 -55 0 -64 -22
-84 -27 -24 -2 24 -8 37 -15 35 -7 -1 -13 5 -13 13 0 8 -9 15 -20 15 -11 0
-20 6 -21 13 0 10 -2 10 -6 0 -2 -7 -11 -13 -19 -13 -15 0 -15 4 1 -200 2 -30
1 -49 -1 -42 -11 25 -105 10 -103 -17 0 -10 2 -11 6 -3 5 13 43 16 81 6 49
-14 17 -24 -73 -24 l-95 0 0 31 c0 31 1 32 40 26 25 -3 40 -1 40 5 0 7 -20 9
-55 5 -44 -4 -55 -3 -55 9 0 8 -4 14 -9 14 -20 0 -3 35 20 41 23 7 23 7 -3 8
l-28 1 0 186 0 186 27 -5 c15 -3 34 -2 42 1 10 5 1 9 -24 12 l-40 5 -3 128 -4
127 96 0 96 0 0 -34 c0 -55 8 -66 50 -66 l37 0 7 -52 c9 -76 7 -108 -4 -108
-6 0 -10 27 -10 60 0 51 -3 60 -17 60 -11 0 -14 -3 -7 -8 10 -6 12 -40 6 -76
-1 -4 -11 -6 -22 -3 -11 3 -20 1 -20 -4 0 -5 11 -9 25 -9 15 0 25 -6 25 -14 0
-7 9 -16 20 -19 17 -4 20 0 20 29 0 33 1 34 39 34 22 0 46 2 53 5 9 4 19 -4
26 -19 9 -21 8 -27 -6 -35 -15 -9 -15 -10 4 -11 12 0 36 -3 53 -6 24 -5 31 -3
31 9 0 10 -6 13 -19 10 -20 -5 -51 20 -51 42 0 8 -10 21 -22 30 -20 13 -21 18
-10 36 11 18 11 20 0 17 -7 -3 -14 -19 -16 -37 -2 -18 -8 -31 -14 -29 -13 5
-13 6 -23 115 l-7 82 39 4 c58 6 59 6 46 0z m-13 -503 c0 -5 -9 -10 -20 -10
-11 0 -20 5 -20 10 0 6 9 10 20 10 11 0 20 -4 20 -10z m-384 -243 c21 -12 17
-37 -6 -37 -17 0 -20 6 -19 43 1 23 4 33 6 22 3 -11 11 -24 19 -28z"/>
<path d="M1856 1838 c3 -4 9 -8 15 -8 5 0 9 4 9 8 0 5 -7 9 -15 9 -8 0 -12 -4
-9 -9z"/>
<path d="M1653 1813 c9 -2 17 -10 17 -16 1 -17 29 -52 36 -45 10 10 -38 68
-55 67 -13 -1 -12 -2 2 -6z"/>
<path d="M1570 1757 c0 -5 -13 -7 -29 -5 -25 4 -27 2 -18 -13 8 -13 8 -21 -1
-32 -10 -12 -8 -16 10 -21 13 -3 40 -6 60 -6 26 0 38 -5 41 -17 3 -11 5 -7 6
10 1 28 1 28 -49 21 -48 -6 -50 -6 -50 19 0 40 74 53 90 15 8 -21 9 -22 10 -3
l1 20 9 -20 c5 -11 11 -37 15 -57 3 -21 10 -38 15 -38 4 0 2 25 -5 55 -8 36
-9 55 -2 58 6 2 -15 8 -46 13 -35 7 -57 7 -57 1z"/>
<path d="M1615 1610 c3 -5 23 -7 43 -4 53 8 53 14 -2 14 -28 0 -45 -4 -41 -10z"/>
<path d="M1800 1588 c0 -6 3 -8 7 -5 3 4 15 -1 26 -10 20 -17 20 -17 14 0 -4
10 -7 21 -7 23 0 2 -9 4 -20 4 -11 0 -20 -5 -20 -12z"/>
<path d="M1835 1510 c-3 -5 -2 -10 4 -10 5 0 13 5 16 10 3 6 2 10 -4 10 -5 0
-13 -4 -16 -10z"/>
<path d="M1712 1460 c9 -14 9 -22 -2 -34 -7 -9 -10 -20 -6 -23 4 -4 11 -1 15
6 6 10 19 12 45 7 36 -7 37 -7 30 21 -9 38 -14 41 -21 15 -7 -28 -43 -30 -43
-3 0 10 -7 21 -15 25 -12 4 -13 2 -3 -14z"/>
<path d="M1812 1400 c0 -14 2 -19 5 -12 2 6 2 18 0 25 -3 6 -5 1 -5 -13z"/>
<path d="M1557 1383 c5 -13 2 -15 -16 -10 -17 4 -21 2 -17 -10 3 -8 6 -26 6
-39 0 -14 6 -24 14 -24 8 0 12 8 9 23 -2 12 1 28 6 36 15 24 38 5 45 -38 5
-35 10 -41 31 -41 14 0 25 4 25 9 0 5 -8 7 -19 4 -21 -5 -30 18 -27 67 2 25
-1 29 -16 24 -10 -3 -18 -1 -18 5 0 6 -7 11 -15 11 -9 0 -12 -6 -8 -17z"/>
<path d="M1649 1368 c-6 -19 -4 -50 4 -55 6 -3 7 -1 3 5 -10 16 28 34 42 20 9
-9 12 -8 12 4 0 15 -56 39 -61 26z"/>
<path d="M2020 1260 c-14 -4 -20 -9 -15 -10 6 -1 18 -3 28 -5 9 -2 17 3 17 11
0 8 -1 14 -2 13 -2 -1 -14 -5 -28 -9z"/>
<path d="M1940 1144 c0 -8 3 -14 8 -14 9 0 39 19 32 21 -3 0 -13 2 -22 4 -10
2 -18 -3 -18 -11z"/>
<path d="M2087 1913 c-13 -12 -7 -67 23 -235 28 -164 41 -208 60 -208 5 0 28
-19 50 -42 l41 -43 112 -6 112 -5 -137 -2 c-75 -1 -143 -5 -152 -8 -11 -4 -16
-19 -16 -53 0 -63 27 -210 42 -230 30 -40 35 -41 289 -41 234 0 248 1 273 21
17 14 26 30 26 50 0 18 7 33 20 41 11 7 20 23 20 37 0 40 -110 371 -131 392
-10 10 -28 19 -38 19 -11 0 -28 15 -40 35 -20 35 -20 35 0 35 11 0 24 11 31
26 10 21 7 39 -16 112 -15 48 -35 93 -44 100 -12 9 -81 12 -267 12 -139 0
-255 -3 -258 -7z m522 -45 c24 -64 24 -64 -15 -60 -22 3 -38 11 -42 22 -5 13
-12 15 -27 9 -17 -7 -18 -8 -2 -8 10 -1 20 -8 23 -16 4 -9 19 -15 40 -15 22 0
34 -5 34 -14 0 -8 7 -16 15 -20 8 -3 15 -12 15 -21 0 -13 -23 -15 -156 -15
-143 0 -155 -1 -150 -17 2 -10 7 -33 11 -50 l7 -33 129 0 130 0 6 -30 c5 -27
9 -30 44 -30 36 0 38 -2 45 -37 4 -21 10 -42 14 -48 7 -10 90 -267 90 -279 0
-3 -16 -6 -35 -6 -19 0 -35 -2 -35 -4 0 -2 7 -22 15 -45 l14 -41 -44 0 c-45 0
-61 14 -27 23 10 3 5 5 -12 6 -21 1 -27 -3 -22 -14 9 -24 -209 -22 -238 3 -20
16 -20 16 -7 0 12 -17 10 -18 -27 -18 -39 0 -42 2 -52 38 -5 20 -13 54 -16 75
-4 20 -11 37 -16 37 -6 0 -7 -11 -4 -26 7 -25 5 -26 -24 -22 -16 3 -30 1 -30
-3 0 -4 14 -9 31 -11 28 -3 33 -8 45 -46 l12 -43 -51 3 -51 3 -18 95 c-9 52
-17 101 -17 108 -1 9 39 12 169 12 189 0 181 -4 158 71 l-11 39 -139 0 -138 0
-2 33 c0 17 -2 37 -3 42 -2 6 -3 18 -4 28 0 9 -5 17 -10 17 -5 0 -7 -9 -4 -20
4 -16 0 -20 -20 -20 -14 0 -28 4 -31 9 -5 7 -44 210 -61 319 l-7 42 246 0
c246 0 246 0 255 -22z"/>
<path d="M2375 1798 c-4 -18 -9 -38 -10 -43 -4 -15 97 -7 107 8 4 6 6 17 3 24
-2 6 7 14 21 16 21 4 21 4 -3 3 -21 -1 -29 -7 -31 -23 -3 -19 -10 -23 -42 -23
-39 0 -39 0 -33 35 7 44 -2 46 -12 3z"/>
<path d="M2415 1820 c-3 -5 -1 -10 4 -10 6 0 11 5 11 10 0 6 -2 10 -4 10 -3 0
-8 -4 -11 -10z"/>
<path d="M2212 1789 c3 -30 0 -34 -27 -40 l-30 -7 31 -1 c27 -1 32 -6 38 -32
10 -49 8 -52 -24 -46 -16 4 -32 2 -35 -4 -4 -5 -3 -9 2 -8 33 6 61 -4 71 -23
9 -19 10 -16 6 22 -3 25 -10 57 -14 73 -8 25 -7 27 18 27 l26 0 -22 16 c-12 8
-22 21 -22 29 0 8 -5 17 -10 20 -6 4 -9 -6 -8 -26z"/>
<path d="M2251 1794 c0 -11 3 -14 6 -6 3 7 2 16 -1 19 -3 4 -6 -2 -5 -13z"/>
<path d="M2300 1536 c0 -8 -8 -17 -17 -19 -14 -4 -12 -5 5 -6 13 -1 22 5 22
13 0 11 14 16 48 19 l47 3 -52 2 c-40 2 -53 -1 -53 -12z"/>
<path d="M2536 1518 c-7 -22 -3 -47 6 -42 5 3 6 14 3 24 -5 15 0 19 27 23 l33
4 -33 1 c-19 1 -34 -3 -36 -10z"/>
<path d="M2700 1439 c0 -11 4 -18 10 -14 5 3 7 12 3 20 -7 21 -13 19 -13 -6z"/>
<path d="M2566 1415 c4 -8 8 -15 10 -15 2 0 4 7 4 15 0 8 -4 15 -10 15 -5 0
-7 -7 -4 -15z"/>
<path d="M2690 1356 c0 -8 5 -18 10 -21 6 -3 10 1 10 9 0 8 12 16 28 19 22 3
20 4 -10 6 -27 1 -38 -3 -38 -13z"/>
<path d="M2781 1264 c0 -11 3 -14 6 -6 3 7 2 16 -1 19 -3 4 -6 -2 -5 -13z"/>
<path d="M2485 1250 c3 -5 8 -10 11 -10 2 0 4 5 4 10 0 6 -5 10 -11 10 -5 0
-7 -4 -4 -10z"/>
<path d="M2530 1191 c0 -17 15 -19 28 -5 11 12 9 14 -8 14 -11 0 -20 -4 -20
-9z"/>
</g>
</svg>
